# xmcd CD database file
#
# Track frame offsets:
#	150
#	130352
#	188722
#
# Disc length: 3883 seconds
#
# Revision: 0
# Processed by: cddbd v1.5.1PL2 Copyright (c) Steve Scherf et al.
# Submitted via: CDex 1.51
#
DISCID=230f2903
DTITLE=Steve Jolliffe - Poland
DYEAR=2006
DGENRE=New Age
TTITLE0=Spring '67
TTITLE1=Meadow Run
TTITLE2=Komarno
EXTD=YEAR: 2006
EXTT0=
EXTT1=
EXTT2=
PLAYORDER=
